<?xml version="1.0" encoding="UTF-8"?><svg id="Layer_1" xmlns="http://www.w3.org/2000/svg" viewBox="0 0 256 200.89"><path d="M29.38,152.79s-7.86-11.95-16.8-6.81c-10.49,6.19-3.8,18.5-3.8,18.5,0,0-9.74,10.79,1.34,17.36,12.37,7.38,16.98-6.19,16.98-6.19h0s16.41,1.14,16.68-12.34c.21-11.96-14.41-10.52-14.41-10.52Z"/><path d="M214.17,72.57c5.23-6.74,7.85-15.05,7.41-23.47-.44-8.42-3.91-16.43-9.81-22.63-20.87-23.92-50.99-9.95-50.99-9.95h0c-4.29-4.81-9.8-8.44-15.98-10.54-6.19-2.1-12.83-2.59-19.28-1.42-6.78.91-13.2,3.49-18.66,7.5-5.45,4.01-9.75,9.31-12.48,15.4,0,0-17.81-16.92-41.43,6.84-23.63,23.75-4.44,44.13-4.44,44.13,0,0-29.09,11.93-18.12,41.46,3.01,8.32,8.6,15.54,16.02,20.65,7.41,5.11,16.28,7.87,25.38,7.89,0,0-1.38,39.44,30.47,44.43,8.66,1.65,17.63.54,25.58-3.15,7.95-3.7,14.47-9.78,18.56-17.35,0,0,14.1,30.76,47.21,12.2,33.11-18.56,20.88-35.99,20.88-35.99,0,0,33.53-3.66,36.28-33.53,2.75-29.87-36.6-42.45-36.6-42.45ZM179.7,130.81c-4.27,6.02-9.91,10.82-16.91,14.39-7.01,3.57-15.48,5.36-25.42,5.36s-18.95-2.1-27-6.3c-8.06-4.2-14.43-10.3-19.12-18.28-4.69-7.98-7.04-17.58-7.04-28.79v-2.73c0-11.21,2.34-20.77,7.04-28.68,4.69-7.91,11.06-14.01,19.12-18.28,8.05-4.27,17.05-6.41,27-6.41s18.42,1.82,25.42,5.46c7,3.64,12.64,8.48,16.91,14.5,4.27,6.02,7.04,12.68,8.3,19.96l-21.01,4.41c-.7-4.62-2.17-8.83-4.41-12.61-2.24-3.78-5.39-6.79-9.46-9.04-4.06-2.24-9.18-3.36-15.34-3.36s-11.45,1.37-16.28,4.1c-4.83,2.73-8.65,6.65-11.45,11.77-2.8,5.12-4.2,11.31-4.2,18.6v1.89c0,7.29,1.4,13.52,4.2,18.7,2.8,5.18,6.62,9.11,11.45,11.77,4.83,2.66,10.26,3.99,16.28,3.99,9.1,0,16.04-2.34,20.8-7.04,4.76-4.69,7.77-10.68,9.04-17.97l21.01,4.83c-1.68,7.14-4.66,13.73-8.93,19.75Z"/></svg>